<svg xmlns="http://www.w3.org/2000/svg" viewBox="0 0 87.3 78" width="48" height="48">
  <path fill="#FFC107" d="M6.6 66.85l3.85 6.65c.8 1.4 1.95 2.5 3.3 3.3l13.75-23.8H0c0 1.55.4 3.1 1.2 4.5l5.4 9.35z"/>
  <path fill="#1976D2" d="M43.65 25L29.9 1.2C28.5.4 26.95 0 25.35 0h-7.1c-1.6 0-3.15.4-4.55 1.2L0 25h27.5l16.15 0z"/>
  <path fill="#4CAF50" d="M73.55 66.85l-13.75-23.85H32.3l13.75 23.85c1.4.8 2.95 1.2 4.55 1.2h20.15c1.6 0 3.15-.4 4.55-1.2h-1.75z"/>
  <path fill="#00E676" d="M86.1 29.5L72.35 5.7c-.8-1.4-1.95-2.5-3.3-3.3L55.3 26.2h27.5c1.55 0 3.1.4 4.5 1.2.8.45 1.5 1.05 2.1 1.75l-3.3.35z"/>
  <path fill="#FF3D00" d="M27.5 25L13.75 48.8l13.75 23.8 13.75-23.8L27.5 25z"/>
  <path fill="#FFD54F" d="M43.65 25H27.5l-13.75 23.8 13.75 23.8H43.65L57.4 48.8 43.65 25z"/>
</svg>
